<mxfile host="app.diagrams.net" modified="2021-09-14T08:05:04.081Z" agent="5.0 (Macintosh; Intel Mac OS X 10_15_7) AppleWebKit/537.36 (KHTML, like Gecko) Chrome/93.0.4577.63 Safari/537.36" etag="doyDoT21ufFvPXyUHp7H" version="15.1.2" type="github">
  <diagram id="C5RBs43oDa-KdzZeNtuy" name="Page-1">
    <mxGraphModel dx="1248" dy="708" grid="0" gridSize="10" guides="1" tooltips="1" connect="1" arrows="1" fold="1" page="1" pageScale="1" pageWidth="827" pageHeight="1169" background="#F1FAEE" math="0" shadow="1">
      <root>
        <mxCell id="WIyWlLk6GJQsqaUBKTNV-0" />
        <mxCell id="WIyWlLk6GJQsqaUBKTNV-1" parent="WIyWlLk6GJQsqaUBKTNV-0" />
        <mxCell id="e7f0tQ01QqEY9uNzB4OA-0" value="" style="rounded=1;whiteSpace=wrap;html=1;fontColor=#1D3557;strokeColor=#457B9D;fillColor=#A8DADC;sketch=1;" vertex="1" parent="WIyWlLk6GJQsqaUBKTNV-1">
          <mxGeometry x="210" y="260" width="350" height="130" as="geometry" />
        </mxCell>
        <mxCell id="e7f0tQ01QqEY9uNzB4OA-1" value="ingress-nginx" style="text;html=1;strokeColor=none;fillColor=none;align=center;verticalAlign=middle;whiteSpace=wrap;rounded=0;fontColor=#1D3557;fontSize=14;fontStyle=1;sketch=1;" vertex="1" parent="WIyWlLk6GJQsqaUBKTNV-1">
          <mxGeometry x="330" y="360" width="110" height="20" as="geometry" />
        </mxCell>
        <mxCell id="e7f0tQ01QqEY9uNzB4OA-34" style="edgeStyle=orthogonalEdgeStyle;curved=0;rounded=1;sketch=1;orthogonalLoop=1;jettySize=auto;html=1;exitX=0.5;exitY=1;exitDx=0;exitDy=0;entryX=0.5;entryY=0;entryDx=0;entryDy=0;fontSize=14;fontColor=#1D3557;strokeColor=#457B9D;fillColor=#A8DADC;" edge="1" parent="WIyWlLk6GJQsqaUBKTNV-1" source="e7f0tQ01QqEY9uNzB4OA-2" target="e7f0tQ01QqEY9uNzB4OA-23">
          <mxGeometry relative="1" as="geometry" />
        </mxCell>
        <mxCell id="e7f0tQ01QqEY9uNzB4OA-2" value="controller-pub" style="rounded=1;whiteSpace=wrap;html=1;fontSize=14;strokeColor=#d6b656;fillColor=#fff2cc;sketch=1;" vertex="1" parent="WIyWlLk6GJQsqaUBKTNV-1">
          <mxGeometry x="240" y="300" width="120" height="50" as="geometry" />
        </mxCell>
        <mxCell id="e7f0tQ01QqEY9uNzB4OA-19" style="edgeStyle=orthogonalEdgeStyle;curved=0;rounded=1;orthogonalLoop=1;jettySize=auto;html=1;exitX=0.5;exitY=1;exitDx=0;exitDy=0;entryX=0.5;entryY=0;entryDx=0;entryDy=0;fontSize=14;fontColor=#1D3557;strokeColor=#457B9D;fillColor=#A8DADC;sketch=1;" edge="1" parent="WIyWlLk6GJQsqaUBKTNV-1" source="e7f0tQ01QqEY9uNzB4OA-3" target="e7f0tQ01QqEY9uNzB4OA-15">
          <mxGeometry relative="1" as="geometry" />
        </mxCell>
        <mxCell id="e7f0tQ01QqEY9uNzB4OA-3" value="controller-internal" style="rounded=1;whiteSpace=wrap;html=1;fontSize=14;strokeColor=#b85450;fillColor=#f8cecc;sketch=1;" vertex="1" parent="WIyWlLk6GJQsqaUBKTNV-1">
          <mxGeometry x="410" y="300" width="120" height="50" as="geometry" />
        </mxCell>
        <mxCell id="e7f0tQ01QqEY9uNzB4OA-27" style="edgeStyle=orthogonalEdgeStyle;curved=0;rounded=1;sketch=1;orthogonalLoop=1;jettySize=auto;html=1;exitX=0.5;exitY=1;exitDx=0;exitDy=0;entryX=0.5;entryY=0;entryDx=0;entryDy=0;fontSize=14;fontColor=#1D3557;strokeColor=#457B9D;fillColor=#A8DADC;" edge="1" parent="WIyWlLk6GJQsqaUBKTNV-1" source="e7f0tQ01QqEY9uNzB4OA-4" target="e7f0tQ01QqEY9uNzB4OA-25">
          <mxGeometry relative="1" as="geometry" />
        </mxCell>
        <mxCell id="e7f0tQ01QqEY9uNzB4OA-4" value="CLB（公网）" style="rounded=1;whiteSpace=wrap;html=1;fontSize=14;strokeColor=#d6b656;fillColor=#fff2cc;sketch=1;" vertex="1" parent="WIyWlLk6GJQsqaUBKTNV-1">
          <mxGeometry x="240" y="60" width="120" height="60" as="geometry" />
        </mxCell>
        <mxCell id="e7f0tQ01QqEY9uNzB4OA-22" style="edgeStyle=orthogonalEdgeStyle;curved=0;rounded=1;orthogonalLoop=1;jettySize=auto;html=1;exitX=0.5;exitY=1;exitDx=0;exitDy=0;entryX=0.5;entryY=0;entryDx=0;entryDy=0;fontSize=14;fontColor=#1D3557;strokeColor=#457B9D;fillColor=#A8DADC;sketch=1;startArrow=none;" edge="1" parent="WIyWlLk6GJQsqaUBKTNV-1" source="e7f0tQ01QqEY9uNzB4OA-31" target="e7f0tQ01QqEY9uNzB4OA-3">
          <mxGeometry relative="1" as="geometry" />
        </mxCell>
        <mxCell id="e7f0tQ01QqEY9uNzB4OA-33" style="edgeStyle=orthogonalEdgeStyle;curved=0;rounded=1;sketch=1;orthogonalLoop=1;jettySize=auto;html=1;exitX=0.5;exitY=1;exitDx=0;exitDy=0;entryX=0.5;entryY=0;entryDx=0;entryDy=0;fontSize=14;fontColor=#1D3557;strokeColor=#457B9D;fillColor=#A8DADC;" edge="1" parent="WIyWlLk6GJQsqaUBKTNV-1" source="e7f0tQ01QqEY9uNzB4OA-5" target="e7f0tQ01QqEY9uNzB4OA-31">
          <mxGeometry relative="1" as="geometry" />
        </mxCell>
        <mxCell id="e7f0tQ01QqEY9uNzB4OA-5" value="CLB（内网）" style="rounded=1;whiteSpace=wrap;html=1;fontSize=14;strokeColor=#b85450;fillColor=#f8cecc;sketch=1;" vertex="1" parent="WIyWlLk6GJQsqaUBKTNV-1">
          <mxGeometry x="410" y="60" width="120" height="60" as="geometry" />
        </mxCell>
        <mxCell id="e7f0tQ01QqEY9uNzB4OA-11" value="" style="rounded=1;whiteSpace=wrap;html=1;fontColor=#1D3557;strokeColor=#457B9D;fillColor=#A8DADC;sketch=1;" vertex="1" parent="WIyWlLk6GJQsqaUBKTNV-1">
          <mxGeometry x="210" y="590" width="350" height="130" as="geometry" />
        </mxCell>
        <mxCell id="e7f0tQ01QqEY9uNzB4OA-12" value="nginx-pub-pod" style="rounded=1;whiteSpace=wrap;html=1;fontSize=14;strokeColor=#d6b656;fillColor=#fff2cc;sketch=1;" vertex="1" parent="WIyWlLk6GJQsqaUBKTNV-1">
          <mxGeometry x="240" y="630" width="120" height="50" as="geometry" />
        </mxCell>
        <mxCell id="e7f0tQ01QqEY9uNzB4OA-13" value="nginx-internal-pod" style="rounded=1;whiteSpace=wrap;html=1;fontSize=14;strokeColor=#b85450;fillColor=#f8cecc;sketch=1;" vertex="1" parent="WIyWlLk6GJQsqaUBKTNV-1">
          <mxGeometry x="410" y="630" width="120" height="50" as="geometry" />
        </mxCell>
        <mxCell id="e7f0tQ01QqEY9uNzB4OA-17" style="edgeStyle=orthogonalEdgeStyle;curved=0;rounded=1;orthogonalLoop=1;jettySize=auto;html=1;exitX=0.5;exitY=1;exitDx=0;exitDy=0;entryX=0.5;entryY=0;entryDx=0;entryDy=0;fontSize=14;fontColor=#1D3557;strokeColor=#457B9D;fillColor=#A8DADC;sketch=1;" edge="1" parent="WIyWlLk6GJQsqaUBKTNV-1" source="e7f0tQ01QqEY9uNzB4OA-14" target="e7f0tQ01QqEY9uNzB4OA-12">
          <mxGeometry relative="1" as="geometry" />
        </mxCell>
        <mxCell id="e7f0tQ01QqEY9uNzB4OA-14" value="svc-pub" style="ellipse;whiteSpace=wrap;html=1;rounded=0;fontSize=14;fillColor=#dae8fc;strokeColor=#6c8ebf;sketch=1;" vertex="1" parent="WIyWlLk6GJQsqaUBKTNV-1">
          <mxGeometry x="250" y="540" width="100" height="32.5" as="geometry" />
        </mxCell>
        <mxCell id="e7f0tQ01QqEY9uNzB4OA-18" style="edgeStyle=orthogonalEdgeStyle;curved=0;rounded=1;orthogonalLoop=1;jettySize=auto;html=1;exitX=0.5;exitY=1;exitDx=0;exitDy=0;entryX=0.5;entryY=0;entryDx=0;entryDy=0;fontSize=14;fontColor=#1D3557;strokeColor=#457B9D;fillColor=#A8DADC;sketch=1;" edge="1" parent="WIyWlLk6GJQsqaUBKTNV-1" source="e7f0tQ01QqEY9uNzB4OA-15" target="e7f0tQ01QqEY9uNzB4OA-13">
          <mxGeometry relative="1" as="geometry" />
        </mxCell>
        <mxCell id="e7f0tQ01QqEY9uNzB4OA-15" value="svc-internal" style="ellipse;whiteSpace=wrap;html=1;rounded=0;fontSize=14;fillColor=#dae8fc;strokeColor=#6c8ebf;sketch=1;" vertex="1" parent="WIyWlLk6GJQsqaUBKTNV-1">
          <mxGeometry x="420" y="540" width="100" height="32.5" as="geometry" />
        </mxCell>
        <mxCell id="e7f0tQ01QqEY9uNzB4OA-20" value="default ns" style="text;html=1;strokeColor=none;fillColor=none;align=center;verticalAlign=middle;whiteSpace=wrap;rounded=0;fontColor=#1D3557;fontSize=14;fontStyle=1;sketch=1;" vertex="1" parent="WIyWlLk6GJQsqaUBKTNV-1">
          <mxGeometry x="340" y="695" width="110" height="20" as="geometry" />
        </mxCell>
        <mxCell id="e7f0tQ01QqEY9uNzB4OA-35" style="edgeStyle=orthogonalEdgeStyle;curved=0;rounded=1;sketch=1;orthogonalLoop=1;jettySize=auto;html=1;exitX=0.5;exitY=1;exitDx=0;exitDy=0;entryX=0.503;entryY=-0.052;entryDx=0;entryDy=0;entryPerimeter=0;fontSize=14;fontColor=#1D3557;strokeColor=#457B9D;fillColor=#A8DADC;" edge="1" parent="WIyWlLk6GJQsqaUBKTNV-1" source="e7f0tQ01QqEY9uNzB4OA-23" target="e7f0tQ01QqEY9uNzB4OA-14">
          <mxGeometry relative="1" as="geometry" />
        </mxCell>
        <mxCell id="e7f0tQ01QqEY9uNzB4OA-23" value="ingress-pub" style="ellipse;whiteSpace=wrap;html=1;rounded=0;fontSize=14;fillColor=#dae8fc;strokeColor=#6c8ebf;sketch=1;" vertex="1" parent="WIyWlLk6GJQsqaUBKTNV-1">
          <mxGeometry x="250" y="450" width="100" height="32.5" as="geometry" />
        </mxCell>
        <mxCell id="e7f0tQ01QqEY9uNzB4OA-24" value="ingress-int" style="ellipse;whiteSpace=wrap;html=1;rounded=0;fontSize=14;fillColor=#dae8fc;strokeColor=#6c8ebf;sketch=1;" vertex="1" parent="WIyWlLk6GJQsqaUBKTNV-1">
          <mxGeometry x="420" y="450" width="100" height="32.5" as="geometry" />
        </mxCell>
        <mxCell id="e7f0tQ01QqEY9uNzB4OA-30" style="edgeStyle=orthogonalEdgeStyle;curved=0;rounded=1;sketch=1;orthogonalLoop=1;jettySize=auto;html=1;exitX=0.5;exitY=1;exitDx=0;exitDy=0;entryX=0.5;entryY=0;entryDx=0;entryDy=0;fontSize=14;fontColor=#1D3557;strokeColor=#457B9D;fillColor=#A8DADC;" edge="1" parent="WIyWlLk6GJQsqaUBKTNV-1" source="e7f0tQ01QqEY9uNzB4OA-25" target="e7f0tQ01QqEY9uNzB4OA-2">
          <mxGeometry relative="1" as="geometry" />
        </mxCell>
        <mxCell id="e7f0tQ01QqEY9uNzB4OA-25" value="svc-ingress-pub" style="ellipse;whiteSpace=wrap;html=1;rounded=0;fontSize=14;fillColor=#dae8fc;strokeColor=#6c8ebf;sketch=1;" vertex="1" parent="WIyWlLk6GJQsqaUBKTNV-1">
          <mxGeometry x="240" y="170" width="120" height="40" as="geometry" />
        </mxCell>
        <mxCell id="e7f0tQ01QqEY9uNzB4OA-31" value="svc-ingress-inter" style="ellipse;whiteSpace=wrap;html=1;rounded=0;fontSize=14;fillColor=#dae8fc;strokeColor=#6c8ebf;sketch=1;" vertex="1" parent="WIyWlLk6GJQsqaUBKTNV-1">
          <mxGeometry x="410" y="170" width="120" height="40" as="geometry" />
        </mxCell>
      </root>
    </mxGraphModel>
  </diagram>
</mxfile>
